<svg width="40" height="40" viewBox="0 0 40 40" fill="none" xmlns="http://www.w3.org/2000/svg">
<g clip-path="url(#clip0_4_269)">
<path d="M15.2001 26.4H18.4001V13.6H15.2001V26.4ZM20.0001 4C11.1601 4 4.00006 11.16 4.00006 20C4.00006 28.84 11.1601 36 20.0001 36C28.8401 36 36.0001 28.84 36.0001 20C36.0001 11.16 28.8401 4 20.0001 4ZM20.0001 32.8C12.9441 32.8 7.20006 27.056 7.20006 20C7.20006 12.944 12.9441 7.2 20.0001 7.2C27.0561 7.2 32.8001 12.944 32.8001 20C32.8001 27.056 27.0561 32.8 20.0001 32.8ZM21.6001 26.4H24.8001V13.6H21.6001V26.4Z" fill="white"/>
</g>
<defs>
<clipPath id="clip0_4_269">
<rect width="38.4" height="38.4" fill="white" transform="translate(0.800049 0.799988)"/>
</clipPath>
</defs>
</svg>
